%TF.GenerationSoftware,KiCad,Pcbnew,9.0.3-9.0.3-0~ubuntu24.04.1*%
%TF.CreationDate,2025-08-18T18:47:55+03:00*%
%TF.ProjectId,PCH_ESP32,5043485f-4553-4503-9332-2e6b69636164,rev?*%
%TF.SameCoordinates,Original*%
%TF.FileFunction,Legend,Top*%
%TF.FilePolarity,Positive*%
%FSLAX46Y46*%
G04 Gerber Fmt 4.6, Leading zero omitted, Abs format (unit mm)*
G04 Created by KiCad (PCBNEW 9.0.3-9.0.3-0~ubuntu24.04.1) date 2025-08-18 18:47:55*
%MOMM*%
%LPD*%
G01*
G04 APERTURE LIST*
%ADD10C,0.150000*%
%ADD11C,0.120000*%
G04 APERTURE END LIST*
D10*
X129534819Y-61333333D02*
X130249104Y-61333333D01*
X130249104Y-61333333D02*
X130391961Y-61380952D01*
X130391961Y-61380952D02*
X130487200Y-61476190D01*
X130487200Y-61476190D02*
X130534819Y-61619047D01*
X130534819Y-61619047D02*
X130534819Y-61714285D01*
X129534819Y-60952380D02*
X129534819Y-60285714D01*
X129534819Y-60285714D02*
X130534819Y-60714285D01*
X149666666Y-57964819D02*
X149666666Y-58679104D01*
X149666666Y-58679104D02*
X149619047Y-58821961D01*
X149619047Y-58821961D02*
X149523809Y-58917200D01*
X149523809Y-58917200D02*
X149380952Y-58964819D01*
X149380952Y-58964819D02*
X149285714Y-58964819D01*
X150666666Y-58964819D02*
X150095238Y-58964819D01*
X150380952Y-58964819D02*
X150380952Y-57964819D01*
X150380952Y-57964819D02*
X150285714Y-58107676D01*
X150285714Y-58107676D02*
X150190476Y-58202914D01*
X150190476Y-58202914D02*
X150095238Y-58250533D01*
X129534819Y-84993333D02*
X130249104Y-84993333D01*
X130249104Y-84993333D02*
X130391961Y-85040952D01*
X130391961Y-85040952D02*
X130487200Y-85136190D01*
X130487200Y-85136190D02*
X130534819Y-85279047D01*
X130534819Y-85279047D02*
X130534819Y-85374285D01*
X130534819Y-84469523D02*
X130534819Y-84279047D01*
X130534819Y-84279047D02*
X130487200Y-84183809D01*
X130487200Y-84183809D02*
X130439580Y-84136190D01*
X130439580Y-84136190D02*
X130296723Y-84040952D01*
X130296723Y-84040952D02*
X130106247Y-83993333D01*
X130106247Y-83993333D02*
X129725295Y-83993333D01*
X129725295Y-83993333D02*
X129630057Y-84040952D01*
X129630057Y-84040952D02*
X129582438Y-84088571D01*
X129582438Y-84088571D02*
X129534819Y-84183809D01*
X129534819Y-84183809D02*
X129534819Y-84374285D01*
X129534819Y-84374285D02*
X129582438Y-84469523D01*
X129582438Y-84469523D02*
X129630057Y-84517142D01*
X129630057Y-84517142D02*
X129725295Y-84564761D01*
X129725295Y-84564761D02*
X129963390Y-84564761D01*
X129963390Y-84564761D02*
X130058628Y-84517142D01*
X130058628Y-84517142D02*
X130106247Y-84469523D01*
X130106247Y-84469523D02*
X130153866Y-84374285D01*
X130153866Y-84374285D02*
X130153866Y-84183809D01*
X130153866Y-84183809D02*
X130106247Y-84088571D01*
X130106247Y-84088571D02*
X130058628Y-84040952D01*
X130058628Y-84040952D02*
X129963390Y-83993333D01*
X175066666Y-57754819D02*
X175066666Y-58469104D01*
X175066666Y-58469104D02*
X175019047Y-58611961D01*
X175019047Y-58611961D02*
X174923809Y-58707200D01*
X174923809Y-58707200D02*
X174780952Y-58754819D01*
X174780952Y-58754819D02*
X174685714Y-58754819D01*
X175495238Y-57850057D02*
X175542857Y-57802438D01*
X175542857Y-57802438D02*
X175638095Y-57754819D01*
X175638095Y-57754819D02*
X175876190Y-57754819D01*
X175876190Y-57754819D02*
X175971428Y-57802438D01*
X175971428Y-57802438D02*
X176019047Y-57850057D01*
X176019047Y-57850057D02*
X176066666Y-57945295D01*
X176066666Y-57945295D02*
X176066666Y-58040533D01*
X176066666Y-58040533D02*
X176019047Y-58183390D01*
X176019047Y-58183390D02*
X175447619Y-58754819D01*
X175447619Y-58754819D02*
X176066666Y-58754819D01*
X194374819Y-84993333D02*
X195089104Y-84993333D01*
X195089104Y-84993333D02*
X195231961Y-85040952D01*
X195231961Y-85040952D02*
X195327200Y-85136190D01*
X195327200Y-85136190D02*
X195374819Y-85279047D01*
X195374819Y-85279047D02*
X195374819Y-85374285D01*
X194374819Y-84040952D02*
X194374819Y-84517142D01*
X194374819Y-84517142D02*
X194851009Y-84564761D01*
X194851009Y-84564761D02*
X194803390Y-84517142D01*
X194803390Y-84517142D02*
X194755771Y-84421904D01*
X194755771Y-84421904D02*
X194755771Y-84183809D01*
X194755771Y-84183809D02*
X194803390Y-84088571D01*
X194803390Y-84088571D02*
X194851009Y-84040952D01*
X194851009Y-84040952D02*
X194946247Y-83993333D01*
X194946247Y-83993333D02*
X195184342Y-83993333D01*
X195184342Y-83993333D02*
X195279580Y-84040952D01*
X195279580Y-84040952D02*
X195327200Y-84088571D01*
X195327200Y-84088571D02*
X195374819Y-84183809D01*
X195374819Y-84183809D02*
X195374819Y-84421904D01*
X195374819Y-84421904D02*
X195327200Y-84517142D01*
X195327200Y-84517142D02*
X195279580Y-84564761D01*
X129534819Y-73163333D02*
X130249104Y-73163333D01*
X130249104Y-73163333D02*
X130391961Y-73210952D01*
X130391961Y-73210952D02*
X130487200Y-73306190D01*
X130487200Y-73306190D02*
X130534819Y-73449047D01*
X130534819Y-73449047D02*
X130534819Y-73544285D01*
X129963390Y-72544285D02*
X129915771Y-72639523D01*
X129915771Y-72639523D02*
X129868152Y-72687142D01*
X129868152Y-72687142D02*
X129772914Y-72734761D01*
X129772914Y-72734761D02*
X129725295Y-72734761D01*
X129725295Y-72734761D02*
X129630057Y-72687142D01*
X129630057Y-72687142D02*
X129582438Y-72639523D01*
X129582438Y-72639523D02*
X129534819Y-72544285D01*
X129534819Y-72544285D02*
X129534819Y-72353809D01*
X129534819Y-72353809D02*
X129582438Y-72258571D01*
X129582438Y-72258571D02*
X129630057Y-72210952D01*
X129630057Y-72210952D02*
X129725295Y-72163333D01*
X129725295Y-72163333D02*
X129772914Y-72163333D01*
X129772914Y-72163333D02*
X129868152Y-72210952D01*
X129868152Y-72210952D02*
X129915771Y-72258571D01*
X129915771Y-72258571D02*
X129963390Y-72353809D01*
X129963390Y-72353809D02*
X129963390Y-72544285D01*
X129963390Y-72544285D02*
X130011009Y-72639523D01*
X130011009Y-72639523D02*
X130058628Y-72687142D01*
X130058628Y-72687142D02*
X130153866Y-72734761D01*
X130153866Y-72734761D02*
X130344342Y-72734761D01*
X130344342Y-72734761D02*
X130439580Y-72687142D01*
X130439580Y-72687142D02*
X130487200Y-72639523D01*
X130487200Y-72639523D02*
X130534819Y-72544285D01*
X130534819Y-72544285D02*
X130534819Y-72353809D01*
X130534819Y-72353809D02*
X130487200Y-72258571D01*
X130487200Y-72258571D02*
X130439580Y-72210952D01*
X130439580Y-72210952D02*
X130344342Y-72163333D01*
X130344342Y-72163333D02*
X130153866Y-72163333D01*
X130153866Y-72163333D02*
X130058628Y-72210952D01*
X130058628Y-72210952D02*
X130011009Y-72258571D01*
X130011009Y-72258571D02*
X129963390Y-72353809D01*
X129534819Y-97309523D02*
X130249104Y-97309523D01*
X130249104Y-97309523D02*
X130391961Y-97357142D01*
X130391961Y-97357142D02*
X130487200Y-97452380D01*
X130487200Y-97452380D02*
X130534819Y-97595237D01*
X130534819Y-97595237D02*
X130534819Y-97690475D01*
X130534819Y-96309523D02*
X130534819Y-96880951D01*
X130534819Y-96595237D02*
X129534819Y-96595237D01*
X129534819Y-96595237D02*
X129677676Y-96690475D01*
X129677676Y-96690475D02*
X129772914Y-96785713D01*
X129772914Y-96785713D02*
X129820533Y-96880951D01*
X129534819Y-95690475D02*
X129534819Y-95595237D01*
X129534819Y-95595237D02*
X129582438Y-95499999D01*
X129582438Y-95499999D02*
X129630057Y-95452380D01*
X129630057Y-95452380D02*
X129725295Y-95404761D01*
X129725295Y-95404761D02*
X129915771Y-95357142D01*
X129915771Y-95357142D02*
X130153866Y-95357142D01*
X130153866Y-95357142D02*
X130344342Y-95404761D01*
X130344342Y-95404761D02*
X130439580Y-95452380D01*
X130439580Y-95452380D02*
X130487200Y-95499999D01*
X130487200Y-95499999D02*
X130534819Y-95595237D01*
X130534819Y-95595237D02*
X130534819Y-95690475D01*
X130534819Y-95690475D02*
X130487200Y-95785713D01*
X130487200Y-95785713D02*
X130439580Y-95833332D01*
X130439580Y-95833332D02*
X130344342Y-95880951D01*
X130344342Y-95880951D02*
X130153866Y-95928570D01*
X130153866Y-95928570D02*
X129915771Y-95928570D01*
X129915771Y-95928570D02*
X129725295Y-95880951D01*
X129725295Y-95880951D02*
X129630057Y-95833332D01*
X129630057Y-95833332D02*
X129582438Y-95785713D01*
X129582438Y-95785713D02*
X129534819Y-95690475D01*
X194494819Y-61333333D02*
X195209104Y-61333333D01*
X195209104Y-61333333D02*
X195351961Y-61380952D01*
X195351961Y-61380952D02*
X195447200Y-61476190D01*
X195447200Y-61476190D02*
X195494819Y-61619047D01*
X195494819Y-61619047D02*
X195494819Y-61714285D01*
X194494819Y-60952380D02*
X194494819Y-60333333D01*
X194494819Y-60333333D02*
X194875771Y-60666666D01*
X194875771Y-60666666D02*
X194875771Y-60523809D01*
X194875771Y-60523809D02*
X194923390Y-60428571D01*
X194923390Y-60428571D02*
X194971009Y-60380952D01*
X194971009Y-60380952D02*
X195066247Y-60333333D01*
X195066247Y-60333333D02*
X195304342Y-60333333D01*
X195304342Y-60333333D02*
X195399580Y-60380952D01*
X195399580Y-60380952D02*
X195447200Y-60428571D01*
X195447200Y-60428571D02*
X195494819Y-60523809D01*
X195494819Y-60523809D02*
X195494819Y-60809523D01*
X195494819Y-60809523D02*
X195447200Y-60904761D01*
X195447200Y-60904761D02*
X195399580Y-60952380D01*
X194374819Y-96833333D02*
X195089104Y-96833333D01*
X195089104Y-96833333D02*
X195231961Y-96880952D01*
X195231961Y-96880952D02*
X195327200Y-96976190D01*
X195327200Y-96976190D02*
X195374819Y-97119047D01*
X195374819Y-97119047D02*
X195374819Y-97214285D01*
X194374819Y-95928571D02*
X194374819Y-96119047D01*
X194374819Y-96119047D02*
X194422438Y-96214285D01*
X194422438Y-96214285D02*
X194470057Y-96261904D01*
X194470057Y-96261904D02*
X194612914Y-96357142D01*
X194612914Y-96357142D02*
X194803390Y-96404761D01*
X194803390Y-96404761D02*
X195184342Y-96404761D01*
X195184342Y-96404761D02*
X195279580Y-96357142D01*
X195279580Y-96357142D02*
X195327200Y-96309523D01*
X195327200Y-96309523D02*
X195374819Y-96214285D01*
X195374819Y-96214285D02*
X195374819Y-96023809D01*
X195374819Y-96023809D02*
X195327200Y-95928571D01*
X195327200Y-95928571D02*
X195279580Y-95880952D01*
X195279580Y-95880952D02*
X195184342Y-95833333D01*
X195184342Y-95833333D02*
X194946247Y-95833333D01*
X194946247Y-95833333D02*
X194851009Y-95880952D01*
X194851009Y-95880952D02*
X194803390Y-95928571D01*
X194803390Y-95928571D02*
X194755771Y-96023809D01*
X194755771Y-96023809D02*
X194755771Y-96214285D01*
X194755771Y-96214285D02*
X194803390Y-96309523D01*
X194803390Y-96309523D02*
X194851009Y-96357142D01*
X194851009Y-96357142D02*
X194946247Y-96404761D01*
X194374819Y-73163333D02*
X195089104Y-73163333D01*
X195089104Y-73163333D02*
X195231961Y-73210952D01*
X195231961Y-73210952D02*
X195327200Y-73306190D01*
X195327200Y-73306190D02*
X195374819Y-73449047D01*
X195374819Y-73449047D02*
X195374819Y-73544285D01*
X194708152Y-72258571D02*
X195374819Y-72258571D01*
X194327200Y-72496666D02*
X195041485Y-72734761D01*
X195041485Y-72734761D02*
X195041485Y-72115714D01*
D11*
%TO.C,J7*%
X133730000Y-59620000D02*
X141460000Y-59620000D01*
X141460000Y-62380000D02*
X141460000Y-59620000D01*
X133730000Y-62380000D02*
X133730000Y-59620000D01*
X133730000Y-62380000D02*
X141460000Y-62380000D01*
X132460000Y-62380000D02*
X131080000Y-62380000D01*
X131080000Y-62380000D02*
X131080000Y-61000000D01*
%TO.C,J1*%
X151380000Y-62160000D02*
X151380000Y-97830000D01*
X148620000Y-97830000D02*
X151380000Y-97830000D01*
X148620000Y-62160000D02*
X151380000Y-62160000D01*
X148620000Y-62160000D02*
X148620000Y-97830000D01*
X148620000Y-60890000D02*
X148620000Y-59510000D01*
X148620000Y-59510000D02*
X150000000Y-59510000D01*
%TO.C,J9*%
X133730000Y-83280000D02*
X141460000Y-83280000D01*
X141460000Y-86040000D02*
X141460000Y-83280000D01*
X133730000Y-86040000D02*
X133730000Y-83280000D01*
X133730000Y-86040000D02*
X141460000Y-86040000D01*
X132460000Y-86040000D02*
X131080000Y-86040000D01*
X131080000Y-86040000D02*
X131080000Y-84660000D01*
%TO.C,J2*%
X174020000Y-59300000D02*
X175400000Y-59300000D01*
X174020000Y-60680000D02*
X174020000Y-59300000D01*
X174020000Y-61950000D02*
X174020000Y-97620000D01*
X174020000Y-61950000D02*
X176780000Y-61950000D01*
X174020000Y-97620000D02*
X176780000Y-97620000D01*
X176780000Y-61950000D02*
X176780000Y-97620000D01*
%TO.C,J5*%
X193920000Y-83280000D02*
X193920000Y-84660000D01*
X192540000Y-83280000D02*
X193920000Y-83280000D01*
X191270000Y-83280000D02*
X183540000Y-83280000D01*
X191270000Y-83280000D02*
X191270000Y-86040000D01*
X183540000Y-83280000D02*
X183540000Y-86040000D01*
X191270000Y-86040000D02*
X183540000Y-86040000D01*
%TO.C,J8*%
X133730000Y-71450000D02*
X141460000Y-71450000D01*
X141460000Y-74210000D02*
X141460000Y-71450000D01*
X133730000Y-74210000D02*
X133730000Y-71450000D01*
X133730000Y-74210000D02*
X141460000Y-74210000D01*
X132460000Y-74210000D02*
X131080000Y-74210000D01*
X131080000Y-74210000D02*
X131080000Y-72830000D01*
%TO.C,J10*%
X133730000Y-95120000D02*
X141460000Y-95120000D01*
X141460000Y-97880000D02*
X141460000Y-95120000D01*
X133730000Y-97880000D02*
X133730000Y-95120000D01*
X133730000Y-97880000D02*
X141460000Y-97880000D01*
X132460000Y-97880000D02*
X131080000Y-97880000D01*
X131080000Y-97880000D02*
X131080000Y-96500000D01*
%TO.C,J3*%
X193920000Y-59620000D02*
X193920000Y-61000000D01*
X192540000Y-59620000D02*
X193920000Y-59620000D01*
X191270000Y-59620000D02*
X183540000Y-59620000D01*
X191270000Y-59620000D02*
X191270000Y-62380000D01*
X183540000Y-59620000D02*
X183540000Y-62380000D01*
X191270000Y-62380000D02*
X183540000Y-62380000D01*
%TO.C,J6*%
X191270000Y-97880000D02*
X183540000Y-97880000D01*
X183540000Y-95120000D02*
X183540000Y-97880000D01*
X191270000Y-95120000D02*
X191270000Y-97880000D01*
X191270000Y-95120000D02*
X183540000Y-95120000D01*
X192540000Y-95120000D02*
X193920000Y-95120000D01*
X193920000Y-95120000D02*
X193920000Y-96500000D01*
%TO.C,J4*%
X191270000Y-74210000D02*
X183540000Y-74210000D01*
X183540000Y-71450000D02*
X183540000Y-74210000D01*
X191270000Y-71450000D02*
X191270000Y-74210000D01*
X191270000Y-71450000D02*
X183540000Y-71450000D01*
X192540000Y-71450000D02*
X193920000Y-71450000D01*
X193920000Y-71450000D02*
X193920000Y-72830000D01*
%TD*%
M02*
