M48
; DRILL file {KiCad 9.0.3-9.0.3-0~ubuntu24.04.1} date 2025-08-18T18:47:53+0300
; FORMAT={-:-/ absolute / metric / decimal}
; #@! TF.CreationDate,2025-08-18T18:47:53+03:00
; #@! TF.GenerationSoftware,Kicad,Pcbnew,9.0.3-9.0.3-0~ubuntu24.04.1
; #@! TF.FileFunction,Plated,1,2,PTH
FMAT,2
METRIC
; #@! TA.AperFunction,Plated,PTH,ComponentDrill
T1C1.000
%
G90
G05
T1
X132.46Y-61.0
X132.46Y-72.83
X132.46Y-84.66
X132.46Y-96.5
X135.0Y-61.0
X135.0Y-72.83
X135.0Y-84.66
X135.0Y-96.5
X137.54Y-61.0
X137.54Y-72.83
X137.54Y-84.66
X137.54Y-96.5
X140.08Y-61.0
X140.08Y-72.83
X140.08Y-84.66
X140.08Y-96.5
X150.0Y-60.89
X150.0Y-63.43
X150.0Y-65.97
X150.0Y-68.51
X150.0Y-71.05
X150.0Y-73.59
X150.0Y-76.13
X150.0Y-78.67
X150.0Y-81.21
X150.0Y-83.75
X150.0Y-86.29
X150.0Y-88.83
X150.0Y-91.37
X150.0Y-93.91
X150.0Y-96.45
X175.4Y-60.68
X175.4Y-63.22
X175.4Y-65.76
X175.4Y-68.3
X175.4Y-70.84
X175.4Y-73.38
X175.4Y-75.92
X175.4Y-78.46
X175.4Y-81.0
X175.4Y-83.54
X175.4Y-86.08
X175.4Y-88.62
X175.4Y-91.16
X175.4Y-93.7
X175.4Y-96.24
X184.92Y-61.0
X184.92Y-72.83
X184.92Y-84.66
X184.92Y-96.5
X187.46Y-61.0
X187.46Y-72.83
X187.46Y-84.66
X187.46Y-96.5
X190.0Y-61.0
X190.0Y-72.83
X190.0Y-84.66
X190.0Y-96.5
X192.54Y-61.0
X192.54Y-72.83
X192.54Y-84.66
X192.54Y-96.5
M30
