%TF.GenerationSoftware,KiCad,Pcbnew,9.0.3-9.0.3-0~ubuntu24.04.1*%
%TF.CreationDate,2025-08-18T18:47:54+03:00*%
%TF.ProjectId,PCH_ESP32,5043485f-4553-4503-9332-2e6b69636164,rev?*%
%TF.SameCoordinates,Original*%
%TF.FileFunction,Copper,L2,Bot*%
%TF.FilePolarity,Positive*%
%FSLAX46Y46*%
G04 Gerber Fmt 4.6, Leading zero omitted, Abs format (unit mm)*
G04 Created by KiCad (PCBNEW 9.0.3-9.0.3-0~ubuntu24.04.1) date 2025-08-18 18:47:54*
%MOMM*%
%LPD*%
G01*
G04 APERTURE LIST*
%ADD10C,1.500000*%
%TA.AperFunction,NonConductor*%
%ADD11C,1.500000*%
%TD*%
%TA.AperFunction,ComponentPad*%
%ADD12C,1.700000*%
%TD*%
%TA.AperFunction,ComponentPad*%
%ADD13R,1.700000X1.700000*%
%TD*%
%TA.AperFunction,Conductor*%
%ADD14C,0.200000*%
%TD*%
G04 APERTURE END LIST*
D10*
D11*
X163101332Y-90846491D02*
X163101332Y-88513158D01*
X159434665Y-87513158D02*
X159434665Y-90846491D01*
X159434665Y-90846491D02*
X166434665Y-90846491D01*
X166434665Y-90846491D02*
X166434665Y-87513158D01*
X159434665Y-83513158D02*
X159767999Y-84179825D01*
X159767999Y-84179825D02*
X160434665Y-84513158D01*
X160434665Y-84513158D02*
X166434665Y-84513158D01*
X159434665Y-80846491D02*
X164101332Y-80846491D01*
X166434665Y-80846491D02*
X166101332Y-81179824D01*
X166101332Y-81179824D02*
X165767999Y-80846491D01*
X165767999Y-80846491D02*
X166101332Y-80513158D01*
X166101332Y-80513158D02*
X166434665Y-80846491D01*
X166434665Y-80846491D02*
X165767999Y-80846491D01*
X159434665Y-74513158D02*
X163101332Y-74513158D01*
X163101332Y-74513158D02*
X163767999Y-74846491D01*
X163767999Y-74846491D02*
X164101332Y-75513158D01*
X164101332Y-75513158D02*
X164101332Y-76846491D01*
X164101332Y-76846491D02*
X163767999Y-77513158D01*
X159767999Y-74513158D02*
X159434665Y-75179825D01*
X159434665Y-75179825D02*
X159434665Y-76846491D01*
X159434665Y-76846491D02*
X159767999Y-77513158D01*
X159767999Y-77513158D02*
X160434665Y-77846491D01*
X160434665Y-77846491D02*
X161101332Y-77846491D01*
X161101332Y-77846491D02*
X161767999Y-77513158D01*
X161767999Y-77513158D02*
X162101332Y-76846491D01*
X162101332Y-76846491D02*
X162101332Y-75179825D01*
X162101332Y-75179825D02*
X162434665Y-74513158D01*
X159434665Y-68179825D02*
X166434665Y-68179825D01*
X159767999Y-68179825D02*
X159434665Y-68846492D01*
X159434665Y-68846492D02*
X159434665Y-70179825D01*
X159434665Y-70179825D02*
X159767999Y-70846492D01*
X159767999Y-70846492D02*
X160101332Y-71179825D01*
X160101332Y-71179825D02*
X160767999Y-71513158D01*
X160767999Y-71513158D02*
X162767999Y-71513158D01*
X162767999Y-71513158D02*
X163434665Y-71179825D01*
X163434665Y-71179825D02*
X163767999Y-70846492D01*
X163767999Y-70846492D02*
X164101332Y-70179825D01*
X164101332Y-70179825D02*
X164101332Y-68846492D01*
X164101332Y-68846492D02*
X163767999Y-68179825D01*
X159767999Y-62179825D02*
X159434665Y-62846492D01*
X159434665Y-62846492D02*
X159434665Y-64179825D01*
X159434665Y-64179825D02*
X159767999Y-64846492D01*
X159767999Y-64846492D02*
X160434665Y-65179825D01*
X160434665Y-65179825D02*
X163101332Y-65179825D01*
X163101332Y-65179825D02*
X163767999Y-64846492D01*
X163767999Y-64846492D02*
X164101332Y-64179825D01*
X164101332Y-64179825D02*
X164101332Y-62846492D01*
X164101332Y-62846492D02*
X163767999Y-62179825D01*
X163767999Y-62179825D02*
X163101332Y-61846492D01*
X163101332Y-61846492D02*
X162434665Y-61846492D01*
X162434665Y-61846492D02*
X161767999Y-65179825D01*
D12*
%TO.P,J7,4,Pin_4*%
%TO.N,Net-(J1-Pin_6)*%
X140080000Y-61000000D03*
%TO.P,J7,3,Pin_3*%
%TO.N,Net-(J1-Pin_5)*%
X137540000Y-61000000D03*
%TO.P,J7,2,Pin_2*%
%TO.N,Net-(J1-Pin_2)*%
X135000000Y-61000000D03*
D13*
%TO.P,J7,1,Pin_1*%
%TO.N,Net-(J1-Pin_1)*%
X132460000Y-61000000D03*
%TD*%
D12*
%TO.P,J1,15,Pin_15*%
%TO.N,unconnected-(J1-Pin_15-Pad15)*%
X150000000Y-96450000D03*
%TO.P,J1,14,Pin_14*%
%TO.N,Net-(J1-Pin_14)*%
X150000000Y-93910000D03*
%TO.P,J1,13,Pin_13*%
%TO.N,unconnected-(J1-Pin_13-Pad13)*%
X150000000Y-91370000D03*
%TO.P,J1,12,Pin_12*%
%TO.N,unconnected-(J1-Pin_12-Pad12)*%
X150000000Y-88830000D03*
%TO.P,J1,11,Pin_11*%
%TO.N,Net-(J1-Pin_11)*%
X150000000Y-86290000D03*
%TO.P,J1,10,Pin_10*%
%TO.N,Net-(J1-Pin_10)*%
X150000000Y-83750000D03*
%TO.P,J1,9,Pin_9*%
%TO.N,Net-(J1-Pin_9)*%
X150000000Y-81210000D03*
%TO.P,J1,8,Pin_8*%
%TO.N,Net-(J1-Pin_8)*%
X150000000Y-78670000D03*
%TO.P,J1,7,Pin_7*%
%TO.N,Net-(J1-Pin_7)*%
X150000000Y-76130000D03*
%TO.P,J1,6,Pin_6*%
%TO.N,Net-(J1-Pin_6)*%
X150000000Y-73590000D03*
%TO.P,J1,5,Pin_5*%
%TO.N,Net-(J1-Pin_5)*%
X150000000Y-71050000D03*
%TO.P,J1,4,Pin_4*%
%TO.N,unconnected-(J1-Pin_4-Pad4)*%
X150000000Y-68510000D03*
%TO.P,J1,3,Pin_3*%
%TO.N,unconnected-(J1-Pin_3-Pad3)*%
X150000000Y-65970000D03*
%TO.P,J1,2,Pin_2*%
%TO.N,Net-(J1-Pin_2)*%
X150000000Y-63430000D03*
D13*
%TO.P,J1,1,Pin_1*%
%TO.N,Net-(J1-Pin_1)*%
X150000000Y-60890000D03*
%TD*%
D12*
%TO.P,J9,4,Pin_4*%
%TO.N,Net-(J1-Pin_10)*%
X140080000Y-84660000D03*
%TO.P,J9,3,Pin_3*%
%TO.N,Net-(J1-Pin_9)*%
X137540000Y-84660000D03*
%TO.P,J9,2,Pin_2*%
%TO.N,Net-(J1-Pin_2)*%
X135000000Y-84660000D03*
D13*
%TO.P,J9,1,Pin_1*%
%TO.N,Net-(J1-Pin_1)*%
X132460000Y-84660000D03*
%TD*%
%TO.P,J2,1,Pin_1*%
%TO.N,unconnected-(J2-Pin_1-Pad1)*%
X175400000Y-60680000D03*
D12*
%TO.P,J2,2,Pin_2*%
%TO.N,unconnected-(J2-Pin_2-Pad2)*%
X175400000Y-63220000D03*
%TO.P,J2,3,Pin_3*%
%TO.N,Net-(J2-Pin_3)*%
X175400000Y-65760000D03*
%TO.P,J2,4,Pin_4*%
%TO.N,unconnected-(J2-Pin_4-Pad4)*%
X175400000Y-68300000D03*
%TO.P,J2,5,Pin_5*%
%TO.N,Net-(J2-Pin_5)*%
X175400000Y-70840000D03*
%TO.P,J2,6,Pin_6*%
%TO.N,Net-(J2-Pin_6)*%
X175400000Y-73380000D03*
%TO.P,J2,7,Pin_7*%
%TO.N,Net-(J2-Pin_7)*%
X175400000Y-75920000D03*
%TO.P,J2,8,Pin_8*%
%TO.N,Net-(J2-Pin_8)*%
X175400000Y-78460000D03*
%TO.P,J2,9,Pin_9*%
%TO.N,Net-(J2-Pin_9)*%
X175400000Y-81000000D03*
%TO.P,J2,10,Pin_10*%
%TO.N,Net-(J2-Pin_10)*%
X175400000Y-83540000D03*
%TO.P,J2,11,Pin_11*%
%TO.N,Net-(J2-Pin_11)*%
X175400000Y-86080000D03*
%TO.P,J2,12,Pin_12*%
%TO.N,unconnected-(J2-Pin_12-Pad12)*%
X175400000Y-88620000D03*
%TO.P,J2,13,Pin_13*%
%TO.N,unconnected-(J2-Pin_13-Pad13)*%
X175400000Y-91160000D03*
%TO.P,J2,14,Pin_14*%
%TO.N,unconnected-(J2-Pin_14-Pad14)*%
X175400000Y-93700000D03*
%TO.P,J2,15,Pin_15*%
%TO.N,unconnected-(J2-Pin_15-Pad15)*%
X175400000Y-96240000D03*
%TD*%
D13*
%TO.P,J5,1,Pin_1*%
%TO.N,Net-(J1-Pin_1)*%
X192540000Y-84660000D03*
D12*
%TO.P,J5,2,Pin_2*%
%TO.N,Net-(J1-Pin_2)*%
X190000000Y-84660000D03*
%TO.P,J5,3,Pin_3*%
%TO.N,Net-(J2-Pin_8)*%
X187460000Y-84660000D03*
%TO.P,J5,4,Pin_4*%
%TO.N,Net-(J2-Pin_9)*%
X184920000Y-84660000D03*
%TD*%
%TO.P,J8,4,Pin_4*%
%TO.N,Net-(J1-Pin_8)*%
X140080000Y-72830000D03*
%TO.P,J8,3,Pin_3*%
%TO.N,Net-(J1-Pin_7)*%
X137540000Y-72830000D03*
%TO.P,J8,2,Pin_2*%
%TO.N,Net-(J1-Pin_2)*%
X135000000Y-72830000D03*
D13*
%TO.P,J8,1,Pin_1*%
%TO.N,Net-(J1-Pin_1)*%
X132460000Y-72830000D03*
%TD*%
D12*
%TO.P,J10,4,Pin_4*%
%TO.N,Net-(J1-Pin_14)*%
X140080000Y-96500000D03*
%TO.P,J10,3,Pin_3*%
%TO.N,Net-(J1-Pin_11)*%
X137540000Y-96500000D03*
%TO.P,J10,2,Pin_2*%
%TO.N,Net-(J1-Pin_2)*%
X135000000Y-96500000D03*
D13*
%TO.P,J10,1,Pin_1*%
%TO.N,Net-(J1-Pin_1)*%
X132460000Y-96500000D03*
%TD*%
%TO.P,J3,1,Pin_1*%
%TO.N,Net-(J1-Pin_1)*%
X192540000Y-61000000D03*
D12*
%TO.P,J3,2,Pin_2*%
%TO.N,Net-(J1-Pin_2)*%
X190000000Y-61000000D03*
%TO.P,J3,3,Pin_3*%
%TO.N,Net-(J2-Pin_3)*%
X187460000Y-61000000D03*
%TO.P,J3,4,Pin_4*%
%TO.N,Net-(J2-Pin_5)*%
X184920000Y-61000000D03*
%TD*%
%TO.P,J6,4,Pin_4*%
%TO.N,Net-(J2-Pin_11)*%
X184920000Y-96500000D03*
%TO.P,J6,3,Pin_3*%
%TO.N,Net-(J2-Pin_10)*%
X187460000Y-96500000D03*
%TO.P,J6,2,Pin_2*%
%TO.N,Net-(J1-Pin_2)*%
X190000000Y-96500000D03*
D13*
%TO.P,J6,1,Pin_1*%
%TO.N,Net-(J1-Pin_1)*%
X192540000Y-96500000D03*
%TD*%
D12*
%TO.P,J4,4,Pin_4*%
%TO.N,Net-(J2-Pin_7)*%
X184920000Y-72830000D03*
%TO.P,J4,3,Pin_3*%
%TO.N,Net-(J2-Pin_6)*%
X187460000Y-72830000D03*
%TO.P,J4,2,Pin_2*%
%TO.N,Net-(J1-Pin_2)*%
X190000000Y-72830000D03*
D13*
%TO.P,J4,1,Pin_1*%
%TO.N,Net-(J1-Pin_1)*%
X192540000Y-72830000D03*
%TD*%
D14*
%TO.N,Net-(J1-Pin_2)*%
X129151000Y-95349000D02*
X129000000Y-95198000D01*
X129000000Y-95198000D02*
X129000000Y-83500000D01*
X196000000Y-71000000D02*
X196000000Y-59500000D01*
X196000000Y-59500000D02*
X191500000Y-59500000D01*
X191500000Y-59500000D02*
X190000000Y-61000000D01*
X196000000Y-83000000D02*
X196000000Y-71000000D01*
X196000000Y-71000000D02*
X191830000Y-71000000D01*
X191830000Y-71000000D02*
X190000000Y-72830000D01*
X196000000Y-95000000D02*
X196000000Y-83000000D01*
X196000000Y-83000000D02*
X191660000Y-83000000D01*
X191660000Y-83000000D02*
X190000000Y-84660000D01*
X196000000Y-95000000D02*
X191500000Y-95000000D01*
X191500000Y-95000000D02*
X190000000Y-96500000D01*
X129151000Y-95349000D02*
X133849000Y-95349000D01*
X133849000Y-95349000D02*
X135000000Y-96500000D01*
X129000000Y-71500000D02*
X129000000Y-83500000D01*
X133840000Y-83500000D02*
X135000000Y-84660000D01*
X129000000Y-83500000D02*
X133840000Y-83500000D01*
X129000000Y-60000000D02*
X129000000Y-71500000D01*
X129000000Y-71500000D02*
X133670000Y-71500000D01*
X133670000Y-71500000D02*
X135000000Y-72830000D01*
X129000000Y-56000000D02*
X129000000Y-60000000D01*
X133849000Y-59849000D02*
X135000000Y-61000000D01*
X129000000Y-60000000D02*
X129151000Y-59849000D01*
X129151000Y-59849000D02*
X133849000Y-59849000D01*
X196000000Y-56000000D02*
X152000000Y-56000000D01*
X150000000Y-63430000D02*
X152000000Y-61430000D01*
X152000000Y-61430000D02*
X152000000Y-56000000D01*
X152000000Y-56000000D02*
X150500000Y-56000000D01*
X196000000Y-59500000D02*
X196000000Y-56000000D01*
X150500000Y-56000000D02*
X129000000Y-56000000D01*
%TD*%
M02*
