%TF.GenerationSoftware,KiCad,Pcbnew,9.0.3-9.0.3-0~ubuntu24.04.1*%
%TF.CreationDate,2025-08-18T18:47:55+03:00*%
%TF.ProjectId,PCH_ESP32,5043485f-4553-4503-9332-2e6b69636164,rev?*%
%TF.SameCoordinates,Original*%
%TF.FileFunction,Soldermask,Top*%
%TF.FilePolarity,Negative*%
%FSLAX46Y46*%
G04 Gerber Fmt 4.6, Leading zero omitted, Abs format (unit mm)*
G04 Created by KiCad (PCBNEW 9.0.3-9.0.3-0~ubuntu24.04.1) date 2025-08-18 18:47:55*
%MOMM*%
%LPD*%
G01*
G04 APERTURE LIST*
%ADD10C,1.700000*%
%ADD11R,1.700000X1.700000*%
G04 APERTURE END LIST*
D10*
%TO.C,J7*%
X140080000Y-61000000D03*
X137540000Y-61000000D03*
X135000000Y-61000000D03*
D11*
X132460000Y-61000000D03*
%TD*%
D10*
%TO.C,J1*%
X150000000Y-96450000D03*
X150000000Y-93910000D03*
X150000000Y-91370000D03*
X150000000Y-88830000D03*
X150000000Y-86290000D03*
X150000000Y-83750000D03*
X150000000Y-81210000D03*
X150000000Y-78670000D03*
X150000000Y-76130000D03*
X150000000Y-73590000D03*
X150000000Y-71050000D03*
X150000000Y-68510000D03*
X150000000Y-65970000D03*
X150000000Y-63430000D03*
D11*
X150000000Y-60890000D03*
%TD*%
D10*
%TO.C,J9*%
X140080000Y-84660000D03*
X137540000Y-84660000D03*
X135000000Y-84660000D03*
D11*
X132460000Y-84660000D03*
%TD*%
%TO.C,J2*%
X175400000Y-60680000D03*
D10*
X175400000Y-63220000D03*
X175400000Y-65760000D03*
X175400000Y-68300000D03*
X175400000Y-70840000D03*
X175400000Y-73380000D03*
X175400000Y-75920000D03*
X175400000Y-78460000D03*
X175400000Y-81000000D03*
X175400000Y-83540000D03*
X175400000Y-86080000D03*
X175400000Y-88620000D03*
X175400000Y-91160000D03*
X175400000Y-93700000D03*
X175400000Y-96240000D03*
%TD*%
D11*
%TO.C,J5*%
X192540000Y-84660000D03*
D10*
X190000000Y-84660000D03*
X187460000Y-84660000D03*
X184920000Y-84660000D03*
%TD*%
%TO.C,J8*%
X140080000Y-72830000D03*
X137540000Y-72830000D03*
X135000000Y-72830000D03*
D11*
X132460000Y-72830000D03*
%TD*%
D10*
%TO.C,J10*%
X140080000Y-96500000D03*
X137540000Y-96500000D03*
X135000000Y-96500000D03*
D11*
X132460000Y-96500000D03*
%TD*%
%TO.C,J3*%
X192540000Y-61000000D03*
D10*
X190000000Y-61000000D03*
X187460000Y-61000000D03*
X184920000Y-61000000D03*
%TD*%
%TO.C,J6*%
X184920000Y-96500000D03*
X187460000Y-96500000D03*
X190000000Y-96500000D03*
D11*
X192540000Y-96500000D03*
%TD*%
D10*
%TO.C,J4*%
X184920000Y-72830000D03*
X187460000Y-72830000D03*
X190000000Y-72830000D03*
D11*
X192540000Y-72830000D03*
%TD*%
M02*
